<?xml version="1.0" encoding="UTF-8"?> <svg xmlns="http://www.w3.org/2000/svg" id="uuid-0c96a0c6-54ec-42ac-910e-6d0ad4ca86a9" viewBox="0 0 923.08 144.61"><g id="uuid-f7ee6b3a-50af-41b8-b18f-bdcd6a8d8844"><g id="uuid-35b7e0f0-404d-4792-a6f7-ff6937a44459"><path id="uuid-8fc31bf2-541a-4126-b2ea-b36537f8efee" d="m108.58,37.92h5.22l14.87-14.87.73-6.32C101.72-7.7,59.47-5.06,35.04,22.62c-6.79,7.68-11.71,16.83-14.4,26.74,1.65-.68,3.49-.79,5.22-.31l29.75-4.91s1.51-2.51,2.3-2.35c13.23-14.53,35.5-16.23,50.78-3.86h-.1Z" style="fill:#ea4335; stroke-width:0px;"></path><path id="uuid-57817491-53eb-43af-a859-16aecf9281ec" d="m149.86,49.35c-3.42-12.59-10.44-23.91-20.19-32.56l-20.87,20.87c8.81,7.2,13.84,18.06,13.62,29.44v3.71c10.26,0,18.58,8.32,18.58,18.58s-8.32,18.58-18.58,18.58h-37.16l-3.71,3.76v22.29l3.71,3.71h37.16c26.69.21,48.49-21.26,48.7-47.95.12-16.21-7.86-31.37-21.25-40.43Z" style="fill:#4285f4; stroke-width:0px;"></path><path id="uuid-044413cc-0eac-4467-85ca-1622dfec60a0" d="m48.04,137.49h37.16v-29.75h-37.16c-2.65,0-5.26-.58-7.67-1.67l-5.22,1.62-14.98,14.87-1.3,5.22c8.39,6.35,18.64,9.76,29.17,9.71h0Z" style="fill:#34a853; stroke-width:0px;"></path><path id="uuid-d4adb3b7-43ca-43bb-bd76-9369010756b4" d="m48.04,41C21.34,41.16-.15,62.92,0,89.62c.09,14.9,7.05,28.93,18.87,38.01l21.55-21.55c-9.35-4.22-13.51-15.23-9.29-24.58s15.23-13.51,24.58-9.29c4.12,1.86,7.42,5.17,9.29,9.29l21.55-21.55c-9.16-12-23.42-19.01-38.51-18.95Z" style="fill:#fbbc05; stroke-width:0px;"></path></g><g id="uuid-dd293edb-5ee7-4bba-aa4d-0e1fef5abf8e"><g id="uuid-1d7bb9d2-51e7-414e-8a61-7a5888d2c378"><path id="uuid-a59de638-abe3-49f2-8986-52ba27d467a6" d="m270.05,116.72c-12.93.16-25.36-4.94-34.44-14.14-9.38-8.81-14.62-21.16-14.45-34.03-.15-12.87,5.08-25.21,14.45-34.03,9.04-9.3,21.48-14.5,34.44-14.4,12.35-.16,24.25,4.63,33.03,13.31l-9.29,9.45c-6.36-6.15-14.9-9.52-23.75-9.4-9.28-.11-18.18,3.68-24.53,10.44-6.59,6.54-10.23,15.5-10.08,24.79-.08,9.18,3.55,18.01,10.08,24.48,13.44,13.39,35.1,13.65,48.85.58,4.1-4.48,6.6-10.19,7.15-16.23h-31.32v-13.35h44.31c.43,2.69.61,5.41.52,8.15.55,11.39-3.57,22.52-11.43,30.79-8.74,9.09-20.94,14.04-33.56,13.61Zm103.02-8.87c-12.36,11.84-31.85,11.84-44.21,0-5.99-5.8-9.25-13.85-9.03-22.18-.23-8.33,3.05-16.37,9.03-22.18,12.37-11.81,31.84-11.81,44.21,0,5.98,5.8,9.25,13.85,9.03,22.18.22,8.34-3.08,16.38-9.08,22.18h.05Zm-34.45-8.71c6.38,6.82,17.08,7.17,23.9.78.27-.26.53-.51.78-.78,3.48-3.61,5.36-8.45,5.22-13.47.15-5.02-1.73-9.9-5.22-13.52-6.56-6.84-17.43-7.08-24.28-.51-.17.16-.35.34-.51.51-3.49,3.62-5.37,8.49-5.22,13.52-.13,5.01,1.77,9.87,5.27,13.47h.06Zm102.4,8.71c-12.36,11.84-31.85,11.84-44.21,0-5.99-5.8-9.25-13.85-9.03-22.18-.23-8.33,3.05-16.37,9.03-22.18,12.36-11.84,31.85-11.84,44.21,0,5.98,5.8,9.25,13.85,9.03,22.18.24,8.33-3.04,16.37-9.03,22.18Zm-34.44-8.71c6.38,6.82,17.08,7.17,23.9.78.27-.26.53-.51.78-.78,3.48-3.61,5.36-8.45,5.22-13.47.15-5.02-1.73-9.9-5.22-13.52-6.56-6.84-17.43-7.08-24.27-.51-.17.16-.35.34-.51.51-3.49,3.62-5.37,8.49-5.22,13.52-.13,5.01,1.77,9.87,5.27,13.47h.05Zm79.11,45.45c-6.26.2-12.39-1.76-17.38-5.54-4.43-3.33-7.92-7.76-10.13-12.84l11.89-4.96c1.29,3.04,3.32,5.71,5.9,7.78,2.75,2.22,6.21,3.39,9.76,3.29,4.54.28,8.98-1.44,12.16-4.69,3.14-3.79,4.69-8.66,4.33-13.57v-4.49h-.47c-4.04,4.79-10.09,7.4-16.33,7.05-7.92.02-15.49-3.27-20.87-9.08-5.83-5.76-9.06-13.66-8.93-21.87-.14-8.25,3.08-16.2,8.93-22.02,5.37-5.83,12.94-9.15,20.87-9.13,3.32-.01,6.6.73,9.6,2.14,2.6,1.13,4.91,2.82,6.79,4.96h.47v-4.96h12.94v55.58c.69,8.88-2.31,17.67-8.3,24.27-5.7,5.45-13.35,8.37-21.24,8.09Zm.94-40.08c4.51.1,8.83-1.82,11.79-5.22,3.21-3.69,4.92-8.46,4.75-13.36.2-4.98-1.5-9.84-4.75-13.62-2.96-3.41-7.28-5.32-11.79-5.22-4.63-.09-9.08,1.81-12.21,5.22-3.45,3.65-5.33,8.5-5.22,13.52-.1,4.97,1.77,9.78,5.22,13.36,3.11,3.44,7.56,5.38,12.21,5.32Zm51.61-80.89v91.22h-13.62V23.62h13.62Zm37.37,93.1c-8.25.22-16.21-3.02-21.97-8.93-5.84-5.85-9.04-13.86-8.82-22.12-.31-8.29,2.76-16.35,8.5-22.34,5.42-5.71,13-8.87,20.87-8.72,3.58-.04,7.13.66,10.44,2.03,2.98,1.2,5.69,2.98,7.98,5.22,1.97,1.9,3.72,4.02,5.22,6.32,1.21,1.94,2.24,3.99,3.08,6.1l1.41,3.55-41.74,17.17c2.59,5.94,8.56,9.68,15.03,9.4,6.26.02,12.06-3.26,15.29-8.61l10.44,7.05c-2.66,3.81-6.07,7.05-10.02,9.5-4.68,2.96-10.15,4.48-15.69,4.38Zm-17.43-32l27.76-11.53c-.85-2.03-2.38-3.71-4.33-4.75-2.18-1.23-4.64-1.86-7.15-1.83-4.24.11-8.28,1.89-11.22,4.96-3.56,3.41-5.42,8.23-5.06,13.15h0Z" style="fill:#5f6368; stroke-width:0px;"></path></g><g id="uuid-868236cd-6435-4a62-87dd-97fe0c62d048"><path id="uuid-2a7f6745-7275-44ac-bc8c-8a13e3887e73" d="m673.68,116.72c-23.75.41-43.33-18.51-43.74-42.26-.01-.58-.01-1.16.01-1.74-.55-23.75,18.25-43.44,41.99-43.99.58-.01,1.16-.01,1.74-.01,11.87-.37,23.28,4.7,30.95,13.77l-7.52,7.3c-5.64-7.1-14.33-11.07-23.38-10.7-8.68-.2-17.07,3.16-23.22,9.29-6.4,6.44-9.82,15.25-9.45,24.32-.38,9.07,3.05,17.88,9.45,24.32,6.15,6.13,14.54,9.48,23.22,9.29,10.11.11,19.71-4.39,26.09-12.21l7.52,7.52c-3.93,4.7-8.87,8.46-14.45,11.01-6.02,2.79-12.58,4.19-19.21,4.09h0Z" style="fill:#5f6368; stroke-width:0px;"></path><path id="uuid-52548365-e6d3-4cd2-aa8c-2f215b89008f" d="m727.53,114.84h-10.81V30.56h10.81v84.29Z" style="fill:#5f6368; stroke-width:0px;"></path><path id="uuid-684edbbd-ca69-4673-b5be-5b3763c6e310" d="m745.18,64.11c11.78-11.7,30.8-11.7,42.59,0,5.59,5.91,8.6,13.79,8.35,21.92.25,8.12-2.76,16.01-8.35,21.92-11.78,11.7-30.8,11.7-42.59,0-5.59-5.91-8.6-13.79-8.35-21.92-.25-8.12,2.75-16.01,8.35-21.92Zm8.03,37.06c6.91,7.3,18.44,7.62,25.75.71.25-.23.48-.47.71-.71,3.81-4.09,5.82-9.54,5.59-15.13.25-5.59-1.77-11.04-5.59-15.13-6.91-7.3-18.44-7.62-25.75-.71-.25.23-.48.47-.71.71-3.81,4.09-5.82,9.54-5.59,15.13-.22,5.58,1.82,11.01,5.64,15.08l-.05.05Z" style="fill:#5f6368; stroke-width:0px;"></path><path id="uuid-4f59b5b3-524f-4b0a-a301-5b9d8e1de55c" d="m855.96,114.84h-10.44v-7.98h-.31c-1.86,3.03-4.49,5.52-7.62,7.2-3.25,1.88-6.94,2.88-10.7,2.87-6.18.42-12.21-2-16.38-6.57-3.95-5-5.94-11.28-5.59-17.64v-35.49h10.81v33.51c0,10.75,4.75,16.13,14.25,16.13,4.28.13,8.36-1.81,10.96-5.22,2.8-3.54,4.29-7.95,4.23-12.47v-31.94h10.81v57.61h-.01Z" style="fill:#5f6368; stroke-width:0px;"></path><path id="uuid-b4ca622d-0240-4069-a9a1-c39800c66512" d="m892.65,116.72c-7.42.02-14.47-3.19-19.31-8.82-5.41-5.98-8.31-13.8-8.09-21.87-.22-8.06,2.68-15.89,8.09-21.87,4.84-5.62,11.89-8.84,19.31-8.82,4.11-.06,8.17.9,11.79,2.81,3.19,1.6,5.9,4.04,7.83,7.05h.47l-.47-7.98v-26.66h10.81v84.29h-10.44v-7.98h-.47c-1.93,3.01-4.63,5.44-7.83,7.05-3.6,1.89-7.61,2.87-11.69,2.81h0Zm1.78-9.86c4.94.07,9.68-1.98,12.99-5.64,3.67-4.18,5.55-9.63,5.22-15.19.33-5.55-1.55-11.01-5.22-15.19-6.55-7.21-17.71-7.73-24.92-1.17-.41.37-.8.77-1.17,1.17-3.68,4.15-5.56,9.59-5.22,15.13-.34,5.54,1.54,10.98,5.22,15.13,3.33,3.74,8.1,5.83,13.1,5.76h0Z" style="fill:#5f6368; stroke-width:0px;"></path></g></g></g></svg> 