<?xml version="1.0" encoding="UTF-8"?> <svg xmlns="http://www.w3.org/2000/svg" id="Layer_2" viewBox="0 0 166.66 100"><defs><style>.cls-1{fill:#262f3e;}.cls-2{fill:#f8991d;fill-rule:evenodd;}</style></defs><g id="AWS"><g id="AWS-2"><g><path class="cls-1" d="M46.97,36.18c0,2.07,.21,3.72,.63,4.95,.42,1.23,1.02,2.56,1.79,3.98,.26,.45,.39,.87,.39,1.26,0,.59-.36,1.13-1.07,1.65l-3.49,2.33c-.52,.32-1,.49-1.45,.49-.59,0-1.13-.26-1.65-.78-.77-.78-1.44-1.63-1.99-2.57-.55-.93-1.12-2.02-1.7-3.25-4.33,5.11-9.77,7.66-16.3,7.66-4.66,0-8.34-1.33-11.06-3.98-2.71-2.65-4.07-6.21-4.07-10.67,0-4.72,1.68-8.52,5.04-11.4,3.37-2.87,7.89-4.31,13.58-4.31,1.87,0,3.83,.14,5.86,.44,2.04,.29,4.15,.69,6.35,1.21v-4.07c0-4.2-.87-7.16-2.62-8.87-1.75-1.72-4.75-2.57-9.02-2.57-1.94,0-3.93,.24-5.96,.73-2.04,.49-4.02,1.12-5.97,1.89-.9,.39-1.55,.63-1.93,.73-.39,.1-.68,.15-.87,.15-.78,0-1.17-.58-1.17-1.75v-2.72c0-.9,.13-1.55,.39-1.94,.26-.39,.78-.78,1.55-1.17,1.94-.97,4.27-1.81,6.98-2.52,2.71-.72,5.59-1.07,8.63-1.07,6.6,0,11.43,1.51,14.5,4.51,3.07,3,4.61,7.55,4.61,13.62v18.04Zm-22.5,8.44c1.81,0,3.72-.34,5.72-1.02,2-.68,3.75-1.86,5.24-3.54,.9-1.03,1.53-2.21,1.89-3.54,.35-1.32,.53-2.92,.53-4.8v-2.33c-1.62-.38-3.31-.69-5.09-.92-1.78-.23-3.51-.34-5.19-.34-3.69,0-6.43,.75-8.24,2.23-1.81,1.49-2.72,3.62-2.72,6.4,0,2.59,.68,4.54,2.04,5.86,1.35,1.33,3.3,1.99,5.82,1.99m44.51,6.01c-.97,0-1.68-.18-2.14-.53-.45-.35-.84-1.08-1.16-2.18L52.69,5.05c-.33-1.1-.49-1.85-.49-2.23,0-.9,.45-1.36,1.36-1.36h5.43c1.03,0,1.76,.18,2.18,.53,.42,.36,.79,1.08,1.12,2.18l9.31,36.66L80.23,4.17c.26-1.1,.61-1.82,1.07-2.18,.45-.35,1.2-.53,2.23-.53h4.46c1.03,0,1.78,.18,2.23,.53,.45,.36,.81,1.08,1.07,2.18l8.73,37.15L109.61,4.17c.33-1.1,.69-1.82,1.12-2.18,.42-.35,1.15-.53,2.18-.53h5.14c.9,0,1.35,.46,1.35,1.36,0,.26-.04,.55-.1,.87-.06,.33-.19,.78-.38,1.36l-13.38,42.86c-.33,1.1-.71,1.83-1.16,2.18-.46,.36-1.16,.53-2.13,.53h-4.75c-1.04,0-1.78-.19-2.23-.58-.45-.39-.81-1.13-1.07-2.23l-8.63-35.69-8.53,35.69c-.26,1.1-.62,1.84-1.07,2.23-.45,.38-1.2,.58-2.23,.58h-4.75Zm71.19,1.46c-2.91,0-5.76-.32-8.54-.97-2.78-.64-4.91-1.39-6.4-2.23-.91-.51-1.47-1.04-1.7-1.55-.22-.52-.34-1.03-.34-1.55v-2.81c0-1.16,.42-1.75,1.26-1.75,.32,0,.66,.07,1.02,.2,.36,.13,.82,.32,1.41,.58,1.88,.84,3.91,1.49,6.11,1.94,2.2,.45,4.4,.68,6.59,.68,3.49,0,6.19-.62,8.1-1.84,1.91-1.23,2.86-2.98,2.86-5.24,0-1.56-.5-2.85-1.5-3.88-1-1.04-2.86-2.01-5.58-2.91l-8.05-2.52c-4.08-1.29-7.03-3.17-8.87-5.62-1.84-2.46-2.76-5.14-2.76-8.05,0-2.33,.5-4.38,1.5-6.16,1-1.78,2.33-3.3,3.98-4.56,1.65-1.26,3.57-2.22,5.77-2.86,2.2-.65,4.53-.98,6.98-.98,1.23,0,2.47,.08,3.73,.25,1.26,.16,2.46,.37,3.59,.63,1.13,.26,2.18,.55,3.15,.87,.97,.33,1.75,.65,2.33,.97,.78,.46,1.33,.91,1.65,1.36,.33,.45,.48,1.06,.48,1.84v2.62c0,1.16-.42,1.74-1.26,1.74-.45,0-1.16-.22-2.13-.68-3.17-1.42-6.72-2.13-10.67-2.13-3.17,0-5.62,.52-7.37,1.55-1.74,1.03-2.62,2.69-2.62,4.95,0,1.55,.55,2.86,1.65,3.93,1.1,1.07,3.14,2.08,6.11,3.05l7.85,2.52c4.01,1.29,6.87,3.07,8.59,5.33,1.71,2.27,2.57,4.85,2.57,7.76,0,2.39-.49,4.54-1.46,6.45-.97,1.91-2.31,3.54-4.02,4.9-1.71,1.36-3.77,2.4-6.16,3.1-2.39,.71-5.01,1.07-7.85,1.07"></path><path class="cls-2" d="M150.65,79.37c-18.25,13.47-44.7,20.63-67.48,20.63-31.93,0-60.68-11.8-82.43-31.45-1.71-1.54-.18-3.64,1.87-2.45,23.47,13.66,52.5,21.88,82.48,21.88,20.22,0,42.45-4.2,62.91-12.87,3.08-1.31,5.67,2.03,2.65,4.26"></path><path class="cls-2" d="M158.24,70.71c-2.33-2.99-15.43-1.41-21.31-.71-1.78,.21-2.06-1.35-.46-2.47,10.45-7.33,27.56-5.22,29.55-2.76,2.01,2.48-.53,19.64-10.31,27.82-1.51,1.26-2.94,.59-2.27-1.07,2.2-5.5,7.13-17.82,4.79-20.8"></path><path class="cls-1" d="M46.97,36.18c0,2.07,.21,3.72,.63,4.95,.42,1.23,1.02,2.56,1.79,3.98,.26,.45,.39,.87,.39,1.26,0,.59-.36,1.13-1.07,1.65l-3.49,2.33c-.52,.32-1,.49-1.45,.49-.59,0-1.13-.26-1.65-.78-.77-.78-1.44-1.63-1.99-2.57-.55-.93-1.12-2.02-1.7-3.25-4.33,5.11-9.77,7.66-16.3,7.66-4.66,0-8.34-1.33-11.06-3.98-2.71-2.65-4.07-6.21-4.07-10.67,0-4.72,1.68-8.52,5.04-11.4,3.37-2.87,7.89-4.31,13.58-4.31,1.87,0,3.83,.14,5.86,.44,2.04,.29,4.15,.69,6.35,1.21v-4.07c0-4.2-.87-7.16-2.62-8.87-1.75-1.72-4.75-2.57-9.02-2.57-1.94,0-3.93,.24-5.96,.73-2.04,.49-4.02,1.12-5.97,1.89-.9,.39-1.55,.63-1.93,.73-.39,.1-.68,.15-.87,.15-.78,0-1.17-.58-1.17-1.75v-2.72c0-.9,.13-1.55,.39-1.94,.26-.39,.78-.78,1.55-1.17,1.94-.97,4.27-1.81,6.98-2.52,2.71-.72,5.59-1.07,8.63-1.07,6.6,0,11.43,1.51,14.5,4.51,3.07,3,4.61,7.55,4.61,13.62v18.04Zm-22.5,8.44c1.81,0,3.72-.34,5.72-1.02,2-.68,3.75-1.86,5.24-3.54,.9-1.03,1.53-2.21,1.89-3.54,.35-1.32,.53-2.92,.53-4.8v-2.33c-1.62-.38-3.31-.69-5.09-.92-1.78-.23-3.51-.34-5.19-.34-3.69,0-6.43,.75-8.24,2.23-1.81,1.49-2.72,3.62-2.72,6.4,0,2.59,.68,4.54,2.04,5.86,1.35,1.33,3.3,1.99,5.82,1.99m44.51,6.01c-.97,0-1.68-.18-2.14-.53-.45-.35-.84-1.08-1.16-2.18L52.69,5.05c-.33-1.1-.49-1.85-.49-2.23,0-.9,.45-1.36,1.36-1.36h5.43c1.03,0,1.76,.18,2.18,.53,.42,.36,.79,1.08,1.12,2.18l9.31,36.66L80.23,4.17c.26-1.1,.61-1.82,1.07-2.18,.45-.35,1.2-.53,2.23-.53h4.46c1.03,0,1.78,.18,2.23,.53,.45,.36,.81,1.08,1.07,2.18l8.73,37.15L109.61,4.17c.33-1.1,.69-1.82,1.12-2.18,.42-.35,1.15-.53,2.18-.53h5.14c.9,0,1.35,.46,1.35,1.36,0,.26-.04,.55-.1,.87-.06,.33-.19,.78-.38,1.36l-13.38,42.86c-.33,1.1-.71,1.83-1.16,2.18-.46,.36-1.16,.53-2.13,.53h-4.75c-1.04,0-1.78-.19-2.23-.58-.45-.39-.81-1.13-1.07-2.23l-8.63-35.69-8.53,35.69c-.26,1.1-.62,1.84-1.07,2.23-.45,.38-1.2,.58-2.23,.58h-4.75Zm71.19,1.46c-2.91,0-5.76-.32-8.54-.97-2.78-.64-4.91-1.39-6.4-2.23-.91-.51-1.47-1.04-1.7-1.55-.22-.52-.34-1.03-.34-1.55v-2.81c0-1.16,.42-1.75,1.26-1.75,.32,0,.66,.07,1.02,.2,.36,.13,.82,.32,1.41,.58,1.88,.84,3.91,1.49,6.11,1.94,2.2,.45,4.4,.68,6.59,.68,3.49,0,6.19-.62,8.1-1.84,1.91-1.23,2.86-2.98,2.86-5.24,0-1.56-.5-2.85-1.5-3.88-1-1.04-2.86-2.01-5.58-2.91l-8.05-2.52c-4.08-1.29-7.03-3.17-8.87-5.62-1.84-2.46-2.76-5.14-2.76-8.05,0-2.33,.5-4.38,1.5-6.16,1-1.78,2.33-3.3,3.98-4.56,1.65-1.26,3.57-2.22,5.77-2.86,2.2-.65,4.53-.98,6.98-.98,1.23,0,2.47,.08,3.73,.25,1.26,.16,2.46,.37,3.59,.63,1.13,.26,2.18,.55,3.15,.87,.97,.33,1.75,.65,2.33,.97,.78,.46,1.33,.91,1.65,1.36,.33,.45,.48,1.06,.48,1.84v2.62c0,1.16-.42,1.74-1.26,1.74-.45,0-1.16-.22-2.13-.68-3.17-1.42-6.72-2.13-10.67-2.13-3.17,0-5.62,.52-7.37,1.55-1.74,1.03-2.62,2.69-2.62,4.95,0,1.55,.55,2.86,1.65,3.93,1.1,1.07,3.14,2.08,6.11,3.05l7.85,2.52c4.01,1.29,6.87,3.07,8.59,5.33,1.71,2.27,2.57,4.85,2.57,7.76,0,2.39-.49,4.54-1.46,6.45-.97,1.91-2.31,3.54-4.02,4.9-1.71,1.36-3.77,2.4-6.16,3.1-2.39,.71-5.01,1.07-7.85,1.07"></path><path class="cls-2" d="M150.65,79.37c-18.25,13.47-44.7,20.63-67.48,20.63-31.93,0-60.68-11.8-82.43-31.45-1.71-1.54-.18-3.64,1.87-2.45,23.47,13.66,52.5,21.88,82.48,21.88,20.22,0,42.45-4.2,62.91-12.87,3.08-1.31,5.67,2.03,2.65,4.26"></path><path class="cls-2" d="M158.24,70.71c-2.33-2.99-15.43-1.41-21.31-.71-1.78,.21-2.06-1.35-.46-2.47,10.45-7.33,27.56-5.22,29.55-2.76,2.01,2.48-.53,19.64-10.31,27.82-1.51,1.26-2.94,.59-2.27-1.07,2.2-5.5,7.13-17.82,4.79-20.8"></path></g></g></g></svg> 