<?xml version="1.0" encoding="UTF-8"?> <svg xmlns="http://www.w3.org/2000/svg" id="Layer_2" viewBox="0 0 646.77 100"><defs><style>.cls-1{fill:#ff3621;}.cls-2{fill-rule:evenodd;}</style></defs><g id="Databricks"><g><path class="cls-1" d="M92.24,73.71v-17.67l-1.94-1.08-44.18,25L4.09,56.25v-10.34l42.03,23.49,46.12-25.86V26.08l-1.94-1.08-44.18,25L5.82,27.16,46.12,4.53l32.54,18.32,2.37-1.29v-1.94L46.12,0,0,25.86v2.59l46.12,26.08,42.03-23.71v10.34l-42.03,23.92L1.94,40.09l-1.94,1.08v17.67l46.12,25.86,42.03-23.49v10.34l-42.03,23.92L1.94,70.47l-1.94,1.08v2.59l46.12,25.86,46.12-26.29Z"></path><path class="cls-2" d="M179.96,5.17V85.34h-12.28v-6.03c0-.43-.22-.86-.65-1.08s-.86,0-1.08,.22c-4.31,5.17-10.78,7.97-17.89,7.97-7.54,0-14.22-3.02-19.4-8.41-4.96-5.39-7.76-12.93-7.76-20.91,0-16.38,11.85-29.31,27.16-29.31,7.11,0,13.58,2.8,17.89,7.76,.22,.43,.86,.43,1.08,.22,.43-.22,.65-.65,.65-1.08V4.74h12.28v.43Zm-46.77,52.16c0,10.13,7.76,18.1,17.46,18.1s17.46-7.97,17.46-18.1-7.76-18.1-17.46-18.1-17.46,7.97-17.46,18.1Z"></path><path class="cls-2" d="M245.91,29.53v55.82h-12.28v-6.03c0-.43-.22-.86-.65-1.08s-.86,0-1.08,.22c-4.31,5.17-10.78,8.19-17.89,8.19-15.3,0-27.16-12.93-27.16-29.31s11.85-29.31,27.16-29.31c7.33,0,13.79,2.8,17.89,7.76,.22,.43,.65,.43,1.08,.22s.65-.65,.65-1.08v-5.6h12.28v.22Zm-46.77,27.8c0,10.13,7.76,18.1,17.46,18.1s17.46-7.97,17.46-18.1-7.76-18.1-17.46-18.1-17.46,7.97-17.46,18.1Z"></path><path class="cls-2" d="M350.43,29.53v55.82h-12.28v-6.03c0-.43-.22-.86-.65-1.08-.43-.22-.86,0-1.08,.22-4.31,5.17-10.78,8.19-17.89,8.19-15.3,0-27.16-12.93-27.16-29.31s11.85-29.31,27.16-29.31c7.33,0,13.79,2.8,17.89,7.76,.22,.43,.65,.43,1.08,.22s.65-.65,.65-1.08v-5.6h12.28v.22Zm-46.77,27.8c0,10.13,7.76,18.1,17.46,18.1s17.46-7.97,17.46-18.1-7.76-18.1-17.46-18.1-17.46,7.97-17.46,18.1Z"></path><path class="cls-2" d="M373.06,78.66h-.43c-.43,.22-.65,.65-.65,1.08v5.6h-12.28V5.17h12.28v30.39c0,.43,.22,.86,.65,1.08,.43,.22,.86,0,1.08-.22,4.31-5.17,10.78-7.97,17.89-7.97,7.54,0,14.22,3.02,19.4,8.41s7.76,12.93,7.76,20.91c0,16.38-11.85,29.31-27.16,29.31-7.11,0-13.58-2.8-17.89-7.76,0-.65-.22-.65-.65-.65Zm15.95-39.44c-9.91,0-17.46,7.97-17.46,18.1s7.76,18.1,17.46,18.1,17.46-7.97,17.46-18.1-7.54-18.1-17.46-18.1Z"></path><path d="M454.53,40.95c1.08,0,2.16,0,3.02,.22v-12.72c-.43,0-1.29-.22-2.16-.22-6.47,0-12.28,3.23-15.52,8.62-.22,.43-.65,.65-1.29,.43-.43-.22-.86-.65-.86-1.08v-6.9h-12.28v55.82h12.28v-24.57c.43-12.07,6.68-19.61,16.81-19.61Z"></path><rect x="465.3" y="29.53" width="12.5" height="55.82"></rect><path d="M471.34,5.17c-4.09,0-7.54,3.45-7.54,7.54s3.45,7.54,7.54,7.54,7.54-3.45,7.54-7.54-3.45-7.54-7.54-7.54Z"></path><path d="M514.44,28.02c-17.03,0-29.53,12.28-29.53,29.31,0,8.19,2.8,15.73,8.19,21.12s12.93,8.19,21.12,8.19c6.9,0,12.28-1.29,22.41-8.84l-7.11-7.33c-4.96,3.23-9.7,4.96-14.22,4.96-10.34,0-18.1-7.76-18.1-17.89s7.76-17.89,18.1-17.89c4.96,0,9.48,1.51,14.01,4.96l7.76-7.33c-8.84-8.41-17.24-9.27-22.63-9.27Z"></path><path d="M558.41,60.56c.22-.22,.43-.22,.65-.22h0c.22,0,.65,.22,.86,.43l19.83,24.57h15.09l-25.65-30.82c-.43-.43-.22-1.08,0-1.51l23.49-23.49h-15.09l-20.26,20.26c-.22,.22-.65,.43-1.08,.22s-.65-.65-.65-1.08V4.96h-12.28V85.13h12.28v-21.77c0-.22,.22-.65,.43-.86l2.37-1.94Z"></path><path d="M615.09,86.64c10.13,0,20.26-6.03,20.26-17.89,0-7.54-4.74-12.93-14.66-16.16l-6.68-2.16c-4.53-1.51-6.68-3.66-6.68-6.68,0-3.45,3.02-5.6,7.33-5.6s7.76,2.59,10.13,7.33l9.91-5.39c-3.66-7.54-11.21-12.07-20.04-12.07-10.99,0-19.18,7.11-19.18,16.81,0,7.76,4.53,12.93,14.22,15.95l6.9,2.16c4.74,1.51,6.9,3.45,6.9,6.68,0,4.74-4.31,6.47-8.19,6.47-4.96,0-9.48-3.23-11.64-8.41l-9.91,5.17c3.23,8.62,11.42,13.79,21.34,13.79Z"></path><path d="M279.96,85.99c3.88,0,7.33-.43,9.27-.65v-10.56c-1.72,.22-4.53,.43-6.25,.43-4.96,0-8.84-.86-8.84-11.64v-22.84c0-.65,.43-1.08,1.08-1.08h12.07v-10.13h-12.07c-.65,0-1.08-.43-1.08-1.08V12.28h-12.28V28.45c0,.65-.43,1.08-1.08,1.08h-8.62v10.13h8.62c.65,0,1.08,.43,1.08,1.08v26.08c.22,19.18,13.36,19.18,18.1,19.18Z"></path><path class="cls-2" d="M645.26,30.39c-.43-.43-.86-.65-1.51-1.08-.65-.22-1.08-.43-1.72-.43s-1.29,.22-1.72,.43c-.65,.22-1.08,.65-1.51,1.08s-.65,.86-.86,1.51c-.22,.65-.43,1.08-.43,1.72,0,.43,0,.65,.22,1.08,0,.43,.22,.65,.43,.86s.22,.65,.43,.86,.43,.43,.65,.65c.22,.22,.65,.43,.86,.65,.22,.22,.65,.22,.86,.43,.43,0,.65,.22,1.08,.22s1.08,0,1.51-.22,.86-.43,1.29-.65c.43-.22,.65-.65,1.08-1.08,.22-.43,.43-.86,.65-1.29,.22-.43,.22-.86,.22-1.51s-.22-1.29-.43-1.72c-.43-.65-.65-1.08-1.08-1.51Zm-.86,6.25c-.22,.22-.65,.43-1.08,.65-.43,.22-.86,.22-1.29,.22s-.86,0-1.29-.22-.65-.22-1.08-.65c-.22-.22-.65-.43-.86-.86-.22-.22-.43-.65-.65-1.08-.22-.43-.22-.86-.22-1.29s0-1.08,.22-1.51,.43-.86,.86-1.29c.43-.43,.86-.65,1.29-.86s1.08-.22,1.51-.22,1.08,0,1.51,.22,.86,.43,1.29,.86c.43,.43,.65,.86,.86,1.29s.22,1.08,.22,1.51,0,.86-.22,1.29-.22,.86-.65,1.08c0,.43-.22,.65-.43,.86Zm-.65-3.45c0,.22-.22,.43-.43,.43-.22,.22-.43,.22-.65,.22l1.51,1.94h-.65l-1.29-1.94h-.86v1.94h-.65v-4.96h1.72c.43,0,.86,.22,1.29,.43,.22,.22,.43,.65,.43,1.08-.43,.43-.43,.86-.43,.86Zm-1.72,.43h-1.08v-1.94h1.08c.22,0,.65,0,.86,.22s.22,.43,.22,.65,0,.43-.22,.65c-.22,.22-.43,.43-.86,.43Z"></path></g></g></svg> 