<?xml version="1.0" encoding="UTF-8"?> <svg xmlns="http://www.w3.org/2000/svg" id="uuid-2e1785b1-912f-4cc6-bab2-235b845b1528" viewBox="0 0 600 140.2"><path d="m203.6,109v-32.3h-28.4v32.3h-14.5V32.5h14.5v31.5h28.4v-31.5h14.5v76.5h-14.5Z" style="stroke-width:0px;"></path><path d="m257.4,87.6h-10.3c-4.6,0-5.9,1.3-5.9,5.5,0,3.9,1.3,5.6,5.6,5.6s7.9-1.4,10.6-2.9c0,.1,0-8.2,0-8.2Zm14.1,21.2h-11.5l-1-3.8c-5,3.2-10.7,4.9-16.7,4.9-10.2,0-14.6-7-14.6-16.6,0-11.4,4.9-15.7,16.3-15.7h13.4v-5.9c0-6.2-1.7-8.4-10.7-8.4-5.1,0-10.6.7-15.5,1.7l-1.7-10.7c5.3-1.6,13-2.6,19.2-2.6,17.6,0,22.7,6.2,22.7,20.2l.1,36.9h0Zm27.1,1.1c-6,0-14.1-1.4-19.3-3.2l2-10.7c4.7,1.4,10.9,2.4,16.7,2.4,6.2,0,7.1-1.4,7.1-5.6,0-3.4-.7-5.2-9.8-7.3-13.7-3.3-15.3-6.8-15.3-17.6s4.9-16.2,20.9-16.2c5.2,0,11.9.7,16.8,2l-1.4,11.1c-4.3-.8-11-1.6-15.4-1.6-6.1,0-7.1,1.4-7.1,4.8,0,4.5.3,4.8,7.9,6.8,15.6,4.1,17.1,6.2,17.1,17.7,0,10.8-3.4,17.4-20.2,17.4m61.9-1.1v-39c0-3-1.3-4.5-4.5-4.5-3.4,0-9.5,2.1-14.6,4.7v38.8h-14V30l14-2v29.1c6.2-3.2,14.5-5.4,20.4-5.4,9.3,0,12.6,6.6,12.6,16.5v40.5h-13.9v.1Z" style="stroke-width:0px;"></path><path d="m384.8,108.8h14v-55.9h-14v55.9h0Zm0-63.9h14v-16.2h-14v16.2h0Zm23.8,8.4c0-14,8.2-22.2,27.2-22.2,7.1,0,14.5.9,20.8,2.5l-1.6,12.5c-6.2-1.1-13.4-2-18.7-2-10,0-13.2,3.4-13.2,11.6v29.4c0,8.2,3.2,11.6,13.2,11.6,5.3,0,12.5-.8,18.7-2l1.6,12.5c-6.3,1.6-13.7,2.5-20.8,2.5-19.1,0-27.2-8.2-27.2-22.2,0,.3,0-34.2,0-34.2Zm76.7,10.3c-7.5,0-10.3,3.3-10.3,9.6v15c0,6.3,2.9,9.6,10.3,9.6s10.3-3.3,10.3-9.6v-15c0-6.2-2.8-9.6-10.3-9.6m0,46.3c-19.2,0-24.3-10.6-24.3-22v-14.1c0-11.5,5.2-22.1,24.3-22.1s24.3,10.6,24.3,22.1v14.1c0,11.5-5.1,22-24.3,22m61.5-45.3c-5.4,2.4-9.8,4.9-14.8,8.2v36.1h-14v-55.9h11.8l.9,6.2c3.1-2.1,9.8-6,14.7-7.4l1.4,12.8h0Zm19.7,31.9c3.7.8,8.4,1.5,12.4,1.5,5.1,0,7-2.4,7-7.5v-19.8c0-4.6-1.7-7.1-6.9-7.1-4.6,0-9.5,2.3-12.5,5.1v27.8Zm33.5-6.3c0,12.4-5.5,19.8-18.5,19.8-4.9,0-10.6-.7-14.9-1.6v23.1l-14,2V53h11.1l1.4,4.7c4.9-3.6,10.7-5.9,17.7-5.9,11.3,0,17.2,6.7,17.2,19.4v19h0ZM55.2,0L0,31.8v76.5l20.7,12V43.8l34.5-19.9V0Z" style="stroke-width:0px;"></path><path d="m77.2,0v60.9h-22v-22.8l-20.7,12v78.1l20.7,12v-60.7h22v22.6l20.7-12V12L77.2,0Z" style="stroke-width:0px;"></path><path d="m77.2,140.2l55.2-31.8V31.9l-20.7-12v76.5l-34.5,19.9v23.9Z" style="stroke-width:0px;"></path></svg> 