<?xml version="1.0" encoding="UTF-8"?> <svg xmlns="http://www.w3.org/2000/svg" id="Layer_2" viewBox="0 0 468.89 100"><defs><style>.cls-1{fill:#ffb900;}.cls-2{fill:#f25022;}.cls-3{fill:#00a4ef;}.cls-4{fill:#737373;}.cls-5{fill:#7fba00;}</style></defs><g id="Microsoft"><g><path class="cls-4" d="M195,20v60h-10.42V32.92h-.14l-18.61,47.08h-6.94l-19.03-47.08h-.14v47.08h-9.58V20h15l17.22,44.44h.28l18.19-44.44h14.17Zm8.61,4.58c0-1.67,.56-3.06,1.81-4.17,1.25-1.11,2.64-1.67,4.31-1.67,1.81,0,3.33,.56,4.44,1.67s1.81,2.5,1.81,4.17-.56,3.06-1.81,4.17c-1.25,1.11-2.64,1.67-4.44,1.67s-3.19-.56-4.31-1.67c-1.11-1.25-1.81-2.64-1.81-4.17Zm11.25,12.36v43.06h-10.14V36.94h10.14Zm30.69,35.69c1.53,0,3.19-.28,5-1.11,1.81-.69,3.47-1.67,5-2.78v9.44c-1.67,.97-3.47,1.67-5.56,2.08s-4.31,.69-6.81,.69c-6.39,0-11.53-1.94-15.42-5.97-4.03-4.03-5.97-9.17-5.97-15.28,0-6.94,2.08-12.64,6.11-17.08s9.72-6.67,17.22-6.67c1.94,0,3.89,.28,5.69,.69,1.94,.42,3.47,1.11,4.58,1.67v9.72c-1.53-1.11-3.19-2.08-4.72-2.64-1.67-.56-3.33-.97-5-.97-4.03,0-7.22,1.25-9.72,3.89s-3.61,6.11-3.61,10.56,1.25,7.78,3.61,10.14c2.36,2.36,5.56,3.61,9.58,3.61Zm38.75-36.39c.83,0,1.53,0,2.22,.14s1.25,.28,1.67,.42v10.28c-.56-.42-1.25-.83-2.36-1.11s-2.22-.56-3.75-.56c-2.5,0-4.58,1.11-6.25,3.19s-2.64,5.28-2.64,9.72v21.67h-10.14V36.94h10.14v6.81h.14c.97-2.36,2.36-4.17,4.17-5.56,1.94-1.25,4.17-1.94,6.81-1.94Zm4.44,22.92c0-7.08,2.08-12.78,5.97-16.94,4.03-4.17,9.58-6.25,16.67-6.25,6.67,0,11.94,1.94,15.69,5.97,3.75,4.03,5.69,9.44,5.69,16.25s-2.08,12.5-5.97,16.67c-4.03,4.17-9.44,6.25-16.39,6.25s-11.94-1.94-15.83-5.83c-3.89-4.03-5.83-9.44-5.83-16.11Zm10.56-.42c0,4.44,.97,7.92,3.06,10.28s5,3.61,8.75,3.61,6.53-1.11,8.47-3.61c1.94-2.36,2.92-5.83,2.92-10.56s-.97-8.06-2.92-10.56c-1.94-2.36-4.86-3.61-8.33-3.61-3.75,0-6.53,1.25-8.61,3.75-2.36,2.64-3.33,6.11-3.33,10.69Zm48.61-10.42c0,1.39,.42,2.64,1.39,3.47s2.92,1.81,6.11,3.06c4.03,1.67,6.94,3.47,8.47,5.42,1.67,2.08,2.5,4.44,2.5,7.36,0,4.03-1.53,7.22-4.72,9.72-3.06,2.5-7.36,3.61-12.64,3.61-1.81,0-3.75-.28-5.97-.69s-4.03-.97-5.56-1.67v-10c1.81,1.25,3.89,2.36,5.97,3.06s4.03,1.11,5.83,1.11c2.22,0,4.03-.28,5-.97,1.11-.69,1.67-1.67,1.67-3.19,0-1.39-.56-2.5-1.67-3.61-1.11-.97-3.33-2.08-6.39-3.33-3.75-1.53-6.39-3.33-7.92-5.28s-2.36-4.44-2.36-7.5c0-3.89,1.53-7.08,4.58-9.58s7.08-3.75,11.94-3.75c1.53,0,3.19,.14,5,.56s3.47,.83,4.72,1.25v9.86c-1.39-.83-2.92-1.67-4.72-2.36s-3.61-.97-5.28-.97c-1.94,0-3.47,.42-4.44,1.11-.97,.97-1.53,1.94-1.53,3.33Zm22.78,10.83c0-7.08,2.08-12.78,5.97-16.94,4.03-4.17,9.58-6.25,16.67-6.25,6.67,0,11.94,1.94,15.69,5.97,3.75,4.03,5.69,9.44,5.69,16.25s-2.08,12.5-5.97,16.67c-4.03,4.17-9.44,6.25-16.39,6.25s-11.94-1.94-15.83-5.83c-3.75-4.03-5.83-9.44-5.83-16.11Zm10.56-.42c0,4.44,.97,7.92,3.06,10.28s5,3.61,8.75,3.61,6.53-1.11,8.47-3.61c1.94-2.36,2.92-5.83,2.92-10.56s-.97-8.06-2.92-10.56c-1.94-2.36-4.86-3.61-8.33-3.61-3.75,0-6.53,1.25-8.61,3.75-2.22,2.64-3.33,6.11-3.33,10.69Zm67.22-13.47h-15.14v34.72h-10.28V45.28h-7.22v-8.33h7.22v-5.97c0-4.44,1.53-8.19,4.44-11.11s6.67-4.31,11.25-4.31c1.25,0,2.36,.14,3.33,.14s1.81,.28,2.5,.56v8.75c-.28-.14-.97-.42-1.81-.69-.83-.28-1.81-.42-2.92-.42-2.08,0-3.75,.69-4.86,1.94s-1.67,3.33-1.67,5.83v5.14h15.14v-9.72l10.14-3.06v12.78h10.28v8.33h-10.28v20.14c0,2.64,.56,4.44,1.39,5.56,.97,1.11,2.5,1.67,4.58,1.67,.56,0,1.25-.14,2.08-.42s1.53-.56,2.08-.97v8.33c-.69,.42-1.67,.69-3.19,.97-1.53,.28-2.92,.42-4.44,.42-4.31,0-7.5-1.11-9.58-3.33-2.08-2.22-3.19-5.69-3.19-10.28l.14-21.94h0Z"></path><g><rect class="cls-2" width="47.5" height="47.5"></rect><rect class="cls-5" x="52.5" width="47.5" height="47.5"></rect><rect class="cls-3" y="52.5" width="47.5" height="47.5"></rect><rect class="cls-1" x="52.5" y="52.5" width="47.5" height="47.5"></rect></g></g></g></svg> 